<svg width="32" height="32" viewBox="0 0 32 32" fill="none" xmlns="http://www.w3.org/2000/svg">
<path d="M22 9.25C21.7292 9.25 21.4948 9.15104 21.2969 8.95312C21.099 8.75521 21 8.52083 21 8.25C21 7.71875 21.099 7.20833 21.2969 6.71875C21.4948 6.22917 21.7865 5.79688 22.1719 5.42188L23.4062 4.17188C23.8021 3.77604 24 3.30208 24 2.75C24 2.47917 24.099 2.24479 24.2969 2.04688C24.4948 1.84896 24.7292 1.75 25 1.75C25.2708 1.75 25.5052 1.84896 25.7031 2.04688C25.901 2.24479 26 2.47917 26 2.75C26 3.28125 25.901 3.79167 25.7031 4.28125C25.5052 4.77083 25.2135 5.20312 24.8281 5.57812L23.5938 6.82812C23.1979 7.22396 23 7.69792 23 8.25C23 8.52083 22.901 8.75521 22.7031 8.95312C22.5052 9.15104 22.2708 9.25 22 9.25ZM16 9.25C15.7292 9.25 15.4948 9.15104 15.2969 8.95312C15.099 8.75521 15 8.52083 15 8.25C15 7.71875 15.099 7.20833 15.2969 6.71875C15.4948 6.22917 15.7865 5.79688 16.1719 5.42188L17.4062 4.17188C17.8021 3.77604 18 3.30208 18 2.75C18 2.47917 18.099 2.24479 18.2969 2.04688C18.4948 1.84896 18.7292 1.75 19 1.75C19.2708 1.75 19.5052 1.84896 19.7031 2.04688C19.901 2.24479 20 2.47917 20 2.75C20 3.28125 19.901 3.79167 19.7031 4.28125C19.5052 4.77083 19.2135 5.20312 18.8281 5.57812L17.5938 6.82812C17.1979 7.22396 17 7.69792 17 8.25C17 8.52083 16.901 8.75521 16.7031 8.95312C16.5052 9.15104 16.2708 9.25 16 9.25ZM29 12C29.4167 12 29.8073 12.0781 30.1719 12.2344C30.5365 12.3906 30.8542 12.6042 31.125 12.875C31.3958 13.1458 31.6094 13.4635 31.7656 13.8281C31.9219 14.1927 32 14.5833 32 15V21C32 21.4167 31.9219 21.8073 31.7656 22.1719C31.6094 22.5365 31.3958 22.8542 31.125 23.125C30.8542 23.3958 30.5365 23.6094 30.1719 23.7656C29.8073 23.9219 29.4167 24 29 24H28.1094C28.0885 24.0729 28.0729 24.1406 28.0625 24.2031C28.0521 24.2656 28.0312 24.3281 28 24.3906V25C28 25.6875 27.8698 26.3333 27.6094 26.9375C27.349 27.5417 26.9896 28.0729 26.5312 28.5312C26.0729 28.9896 25.5417 29.349 24.9375 29.6094C24.3333 29.8698 23.6875 30 23 30H17C16.1875 30 15.4375 29.8177 14.75 29.4531C14.0625 29.0885 13.4896 28.6042 13.0312 28H5.21875C4.53125 28 3.88542 27.8698 3.28125 27.6094C2.67708 27.349 2.14583 26.9948 1.6875 26.5469C1.22917 26.099 0.869792 25.5677 0.609375 24.9531C0.348958 24.3385 0.21875 23.6875 0.21875 23V22H4.21875C4.21875 21.1771 4.375 20.401 4.6875 19.6719C5 18.9427 5.43229 18.3073 5.98438 17.7656C6.53646 17.224 7.17188 16.7917 7.89062 16.4688C8.60938 16.1458 9.38542 15.9896 10.2188 16C10.5312 16 10.8333 16.026 11.125 16.0781C11.4167 16.1302 11.7083 16.2031 12 16.2969V10H28V12H29ZM10.2188 18C9.66667 18 9.15104 18.1042 8.67188 18.3125C8.19271 18.5208 7.76562 18.8073 7.39062 19.1719C7.01562 19.5365 6.72917 19.9583 6.53125 20.4375C6.33333 20.9167 6.22917 21.4375 6.21875 22H12V18.4375C11.7292 18.3021 11.4479 18.1979 11.1562 18.125C10.8646 18.0521 10.5521 18.0104 10.2188 18ZM5.21875 26H12.1094C12.0365 25.6979 12 25.3646 12 25V24H2.39062C2.49479 24.2917 2.64062 24.5573 2.82812 24.7969C3.01562 25.0365 3.22917 25.25 3.46875 25.4375C3.70833 25.625 3.97917 25.7604 4.28125 25.8438C4.58333 25.9271 4.89583 25.9792 5.21875 26ZM12.4531 27.0469V27.0625L12.4688 27.0938V27.0781L12.4531 27.0469ZM26 25V12H14V25C14 25.4167 14.0781 25.8073 14.2344 26.1719C14.3906 26.5365 14.6042 26.8542 14.875 27.125C15.1458 27.3958 15.4635 27.6094 15.8281 27.7656C16.1927 27.9219 16.5833 28 17 28H23C23.4167 28 23.8073 27.9219 24.1719 27.7656C24.5365 27.6094 24.8542 27.3958 25.125 27.125C25.3958 26.8542 25.6094 26.5365 25.7656 26.1719C25.9219 25.8073 26 25.4167 26 25ZM30 21V15C30 14.7292 29.901 14.4948 29.7031 14.2969C29.5052 14.099 29.2708 14 29 14H28V22H29C29.2708 22 29.5052 21.901 29.7031 21.7031C29.901 21.5052 30 21.2708 30 21Z" fill="black"/>
</svg>
