<svg width="32" height="32" viewBox="0 0 32 32" fill="none" xmlns="http://www.w3.org/2000/svg">
<g clip-path="url(#clip0_18_305)">
<path fill-rule="evenodd" clip-rule="evenodd" d="M16.4973 10.7893L17.576 9.71066C17.3342 9.20841 17.2001 8.66118 17.1821 8.10405C17.1642 7.54693 17.2628 6.9922 17.4717 6.47542C17.6807 5.95865 17.9953 5.49122 18.3954 5.10311C18.7955 4.715 19.2722 4.41477 19.7951 4.22166C20.318 4.02855 20.8755 3.94682 21.4318 3.98171C21.9882 4.0166 22.531 4.16734 23.0257 4.42427C23.5204 4.6812 23.9559 5.03865 24.3044 5.47371C24.6529 5.90876 24.9066 6.41183 25.0493 6.95066C25.5855 7.0957 26.0856 7.35081 26.5177 7.69974C26.9499 8.04868 27.3046 8.4838 27.5594 8.97738C27.8141 9.47096 27.9633 10.0122 27.9973 10.5666C28.0314 11.121 27.9496 11.6764 27.7572 12.1974C27.5648 12.7185 27.266 13.1938 26.8798 13.593C26.4937 13.9922 26.0286 14.3066 25.5142 14.5162C24.9998 14.7258 24.4474 14.826 23.8922 14.8103C23.337 14.7947 22.7911 14.6636 22.2893 14.4253L21.2107 15.504L21.2173 15.5493C21.372 16.784 21.28 18.1573 21.0133 19.5067C20.4867 22.1747 19.2173 25.04 17.4133 26.8427C15.592 28.664 13.4427 29.416 11.292 29.224C9.18132 29.036 7.21065 27.952 5.62932 26.3707C4.04798 24.7907 2.96532 22.82 2.77598 20.708C2.58398 18.5573 3.33598 16.408 5.15732 14.5867C6.96132 12.7827 9.82665 11.5147 12.4933 10.9867C13.844 10.72 15.216 10.628 16.452 10.784L16.4973 10.7893ZM23.9307 9.484C23.6292 9.12012 23.1955 8.8909 22.7251 8.84677C22.2546 8.80263 21.7859 8.9472 21.422 9.24866C21.0581 9.55013 20.8289 9.98379 20.7848 10.4543C20.7406 10.9247 20.8852 11.3935 21.1867 11.7573L20.204 12.7387C19.9422 12.3761 19.6239 12.0578 19.2613 11.796L20.2427 10.8147C20.4926 10.5646 20.633 10.2255 20.633 9.872C20.633 9.51844 20.4926 9.17937 20.2427 8.92933C20.0851 8.77178 19.9695 8.57724 19.9064 8.36349C19.8434 8.14975 19.8349 7.92361 19.8818 7.70576C19.9288 7.4879 20.0295 7.28528 20.1749 7.11641C20.3203 6.94753 20.5057 6.8178 20.7142 6.73905C20.9227 6.66031 21.1475 6.63508 21.3683 6.66566C21.589 6.69623 21.7986 6.78165 21.9778 6.9141C22.157 7.04655 22.3002 7.2218 22.3942 7.42384C22.4882 7.62588 22.5301 7.84826 22.516 8.07066C22.5043 8.25931 22.5328 8.44829 22.5997 8.62506C22.6666 8.80184 22.7703 8.96238 22.9039 9.09603C23.0376 9.22968 23.1981 9.33339 23.3749 9.40027C23.5517 9.46716 23.742 9.4957 23.9307 9.484ZM7.04398 16.4707C8.36398 15.1507 10.684 14.0627 13.0107 13.604C14.1573 13.3773 15.2347 13.3187 16.1173 13.4307C17.02 13.5427 17.5853 13.8147 17.8853 14.1147C18.1853 14.4147 18.4573 14.9813 18.5707 15.8827C18.6827 16.7667 18.624 17.8427 18.3973 18.9893C17.9373 21.3147 16.8493 23.636 15.528 24.9573C14.2267 26.26 12.84 26.6853 11.5293 26.568C10.1787 26.448 8.76265 25.7333 7.51598 24.4853C6.26665 23.2387 5.55332 21.8213 5.43198 20.472C5.31465 19.16 5.74132 17.7747 7.04398 16.472V16.4707Z" fill="black"/>
</g>
<defs>
<clipPath id="clip0_18_305">
<rect width="32" height="32" fill="white"/>
</clipPath>
</defs>
</svg>
