<svg width="193" height="48" viewBox="0 0 193 48" fill="none" xmlns="http://www.w3.org/2000/svg">
<path opacity="0.15" d="M8.06006 45.32C8.06006 45.7656 9.42127 46.1929 11.8442 46.508C14.2672 46.823 17.5535 47 20.9801 47C24.4067 47 27.6929 46.823 30.1159 46.508C32.5388 46.1929 33.9001 45.7656 33.9001 45.32C33.9001 44.8745 32.5388 44.4471 30.1159 44.1321C27.6929 43.817 24.4067 43.64 20.9801 43.64C17.5535 43.64 14.2672 43.817 11.8442 44.1321C9.42127 44.4471 8.06006 44.8745 8.06006 45.32Z" fill="#45413C"/>
<path d="M36.9 9.21997L32.5 13.65C29.0494 10.8031 24.6353 9.39378 20.1734 9.71422C15.7115 10.0347 11.5441 12.0603 8.53566 15.371C5.52722 18.6817 3.90858 23.0234 4.01547 27.4955C4.12237 31.9677 5.94659 36.227 9.10977 39.3902C12.273 42.5534 16.5323 44.3776 21.0045 44.4845C25.4766 44.5914 29.8183 42.9728 33.129 39.9643C36.4397 36.9559 38.4653 32.7885 38.7858 28.3266C39.1062 23.8647 37.6969 19.4506 34.85 16L39.28 11.57L36.9 9.21997Z" fill="#87898C"/>
<path d="M35.3099 10.81L32.4999 13.65C29.8683 11.473 26.6542 10.1186 23.2582 9.75556C19.8622 9.39254 16.4344 10.037 13.4021 11.6086C10.3698 13.1802 7.8671 15.6094 6.20584 18.5935C4.54459 21.5777 3.79828 24.9847 4.05994 28.39C4.28242 25.3784 5.28488 22.4765 6.96873 19.9697C8.65259 17.463 10.9599 15.4376 13.6637 14.0927C16.3675 12.7478 19.3748 12.1298 22.3899 12.2994C25.405 12.469 28.324 13.4204 30.8599 15.06C31.3384 15.3707 31.9088 15.5084 32.4764 15.4501C33.0439 15.3919 33.5745 15.1414 33.9799 14.74L36.6099 12.11L35.3099 10.81Z" fill="#BDBEC0"/>
<path d="M36.9 9.21997L32.5 13.65C29.0494 10.8031 24.6353 9.39378 20.1734 9.71422C15.7115 10.0347 11.5441 12.0603 8.53566 15.371C5.52722 18.6817 3.90858 23.0234 4.01547 27.4955C4.12237 31.9677 5.94659 36.227 9.10977 39.3902C12.273 42.5534 16.5323 44.3776 21.0045 44.4845C25.4766 44.5914 29.8183 42.9728 33.129 39.9643C36.4397 36.9559 38.4653 32.7885 38.7858 28.3266C39.1062 23.8647 37.6969 19.4506 34.85 16L39.28 11.57L36.9 9.21997Z" stroke="#45413C" stroke-linecap="round" stroke-linejoin="round"/>
<path d="M44.4401 4.06001C44.1794 3.79393 43.8682 3.58255 43.5248 3.43824C43.1814 3.29394 42.8126 3.2196 42.4401 3.2196C42.0676 3.2196 41.6988 3.29394 41.3554 3.43824C41.012 3.58255 40.7008 3.79393 40.4401 4.06001L35.3101 9.22001C35.2052 9.32412 35.1219 9.44797 35.0651 9.58442C35.0083 9.72086 34.979 9.86721 34.979 10.015C34.979 10.1628 35.0083 10.3092 35.0651 10.4456C35.1219 10.5821 35.2052 10.7059 35.3101 10.81L37.6901 13.19C37.7942 13.2949 37.9181 13.3782 38.0545 13.435C38.1909 13.4918 38.3373 13.5211 38.4851 13.5211C38.6329 13.5211 38.7792 13.4918 38.9157 13.435C39.0521 13.3782 39.176 13.2949 39.2801 13.19L44.4401 8.00001C44.9592 7.47574 45.2503 6.76778 45.2503 6.03001C45.2503 5.29224 44.9592 4.58429 44.4401 4.06001Z" fill="#FFE500"/>
<path d="M44.4401 4.06001C44.1794 3.79393 43.8682 3.58255 43.5248 3.43824C43.1814 3.29394 42.8126 3.2196 42.4401 3.2196C42.0676 3.2196 41.6988 3.29394 41.3554 3.43824C41.012 3.58255 40.7008 3.79393 40.4401 4.06001L35.3101 9.22001C35.2052 9.32412 35.1219 9.44797 35.0651 9.58442C35.0083 9.72086 34.979 9.86721 34.979 10.015C34.979 10.1628 35.0083 10.3092 35.0651 10.4456C35.1219 10.5821 35.2052 10.7059 35.3101 10.81L36.1601 11.66C36.194 11.5907 36.2378 11.5267 36.2901 11.47L41.5001 6.30001C41.9996 5.80265 42.6683 5.51197 43.3727 5.48602C44.0771 5.46007 44.7654 5.70075 45.3001 6.16001C45.3144 5.76894 45.2451 5.37931 45.0968 5.01717C44.9485 4.65503 44.7246 4.3287 44.4401 4.06001Z" fill="#FFF48C"/>
<path d="M44.4401 4.06001C44.7062 4.32071 44.9176 4.63189 45.0619 4.97531C45.2062 5.31873 45.2805 5.6875 45.2805 6.06001C45.2805 6.43252 45.2062 6.80128 45.0619 7.14471C44.9176 7.48813 44.7062 7.7993 44.4401 8.06001L39.2801 13.22C39.176 13.3249 39.0521 13.4082 38.9157 13.465C38.7792 13.5218 38.6329 13.5511 38.4851 13.5511C38.3373 13.5511 38.1909 13.5218 38.0545 13.465C37.9181 13.4082 37.7942 13.3249 37.6901 13.22L35.3101 10.84C35.2052 10.7359 35.1219 10.612 35.0651 10.4756C35.0083 10.3392 34.979 10.1928 34.979 10.045C34.979 9.8972 35.0083 9.75086 35.0651 9.61441C35.1219 9.47797 35.2052 9.35412 35.3101 9.25001L40.5001 4.06001C41.0244 3.54093 41.7323 3.24976 42.4701 3.24976C43.2079 3.24976 43.9158 3.54093 44.4401 4.06001Z" stroke="#45413C" stroke-linecap="round" stroke-linejoin="round"/>
<path d="M7.37012 27.09C7.37012 28.9338 7.73327 30.7595 8.43885 32.4629C9.14442 34.1663 10.1786 35.7141 11.4823 37.0178C12.7861 38.3216 14.3338 39.3557 16.0372 40.0613C17.7407 40.7669 19.5664 41.1301 21.4101 41.1301C23.2539 41.1301 25.0796 40.7669 26.783 40.0613C28.4864 39.3557 30.0342 38.3216 31.3379 37.0178C32.6416 35.7141 33.6758 34.1663 34.3814 32.4629C35.087 30.7595 35.4501 28.9338 35.4501 27.09C35.4501 25.2463 35.087 23.4206 34.3814 21.7172C33.6758 20.0138 32.6416 18.466 31.3379 17.1623C30.0342 15.8585 28.4864 14.8244 26.783 14.1188C25.0796 13.4132 23.2539 13.05 21.4101 13.05C19.5664 13.05 17.7407 13.4132 16.0372 14.1188C14.3338 14.8244 12.7861 15.8585 11.4823 17.1623C10.1786 18.466 9.14442 20.0138 8.43885 21.7172C7.73327 23.4206 7.37012 25.2463 7.37012 27.09Z" fill="#656769"/>
<path d="M11.4999 20.53C13.3555 18.6544 15.7033 17.3413 18.2727 16.7421C20.8421 16.1428 23.5286 16.2819 26.0224 17.1431C28.5162 18.0044 30.716 19.5528 32.368 21.6099C34.0201 23.667 35.0572 26.149 35.3599 28.77C35.5553 26.8233 35.3406 24.8573 34.7295 22.9988C34.1184 21.1402 33.1245 19.4304 31.812 17.9796C30.4995 16.5287 28.8975 15.3691 27.1093 14.5754C25.3211 13.7818 23.3864 13.3717 21.4299 13.3717C19.4735 13.3717 17.5388 13.7818 15.7506 14.5754C13.9624 15.3691 12.3603 16.5287 11.0478 17.9796C9.73534 19.4304 8.7415 21.1402 8.1304 22.9988C7.51931 24.8573 7.30453 26.8233 7.49993 28.77C7.87162 25.6525 9.28039 22.7504 11.4999 20.53Z" fill="#525252"/>
<path d="M7.37012 27.09C7.37012 28.9338 7.73327 30.7595 8.43885 32.4629C9.14442 34.1663 10.1786 35.7141 11.4823 37.0178C12.7861 38.3216 14.3338 39.3557 16.0372 40.0613C17.7407 40.7669 19.5664 41.1301 21.4101 41.1301C23.2539 41.1301 25.0796 40.7669 26.783 40.0613C28.4864 39.3557 30.0342 38.3216 31.3379 37.0178C32.6416 35.7141 33.6758 34.1663 34.3814 32.4629C35.087 30.7595 35.4501 28.9338 35.4501 27.09C35.4501 25.2463 35.087 23.4206 34.3814 21.7172C33.6758 20.0138 32.6416 18.466 31.3379 17.1623C30.0342 15.8585 28.4864 14.8244 26.783 14.1188C25.0796 13.4132 23.2539 13.05 21.4101 13.05C19.5664 13.05 17.7407 13.4132 16.0372 14.1188C14.3338 14.8244 12.7861 15.8585 11.4823 17.1623C10.1786 18.466 9.14442 20.0138 8.43885 21.7172C7.73327 23.4206 7.37012 25.2463 7.37012 27.09Z" stroke="#45413C" stroke-linecap="round" stroke-linejoin="round"/>
<path d="M27.05 25.42C26.6071 25.42 26.1824 25.244 25.8692 24.9309C25.556 24.6177 25.38 24.1929 25.38 23.75C25.4168 23.037 25.2921 22.325 25.0152 21.667C24.7383 21.0089 24.3163 20.422 23.7807 19.9499C23.2452 19.4778 22.6099 19.1328 21.9224 18.9406C21.2348 18.7484 20.5128 18.714 19.81 18.84C18.3033 19.1377 16.9065 19.8413 15.7705 20.875C14.6345 21.9086 13.8025 23.233 13.3643 24.705C12.9261 26.1771 12.8984 27.7409 13.2842 29.2275C13.6699 30.7142 14.4545 32.0672 15.5532 33.1404C16.6518 34.2136 18.0228 34.9663 19.5181 35.3172C21.0134 35.6681 22.5761 35.6038 24.0375 35.1313C25.4989 34.6587 26.8034 33.7959 27.8102 32.6361C28.8169 31.4762 29.4877 30.0633 29.75 28.55C29.8128 28.1611 29.7897 27.7633 29.6824 27.3843C29.5752 27.0053 29.3863 26.6544 29.129 26.3562C28.8717 26.0579 28.5523 25.8196 28.1932 25.6579C27.834 25.4961 27.4439 25.415 27.05 25.42Z" fill="#F0F0F0"/>
<path d="M13.17 28.63C13.4965 26.9919 14.3017 25.4874 15.4837 24.3072C16.6658 23.127 18.1714 22.324 19.81 22C20.5127 21.874 21.2348 21.9084 21.9224 22.1006C22.6099 22.2928 23.2452 22.6378 23.7807 23.1099C24.3163 23.582 24.7382 24.169 25.0152 24.827C25.2921 25.485 25.4168 26.197 25.38 26.91C25.38 27.3538 25.5556 27.7796 25.8685 28.0944C26.1814 28.4092 26.6062 28.5874 27.05 28.59C27.5196 28.5906 27.9815 28.7101 28.3924 28.9374C28.8034 29.1647 29.15 29.4925 29.4 29.89C29.5529 29.457 29.67 29.0122 29.75 28.56C29.8128 28.1712 29.7897 27.7733 29.6824 27.3943C29.5751 27.0153 29.3862 26.6644 29.129 26.3662C28.8717 26.068 28.5523 25.8296 28.1932 25.6679C27.834 25.5062 27.4439 25.425 27.05 25.43C26.6071 25.43 26.1823 25.254 25.8692 24.9409C25.556 24.6277 25.38 24.2029 25.38 23.76C25.4168 23.047 25.2921 22.335 25.0152 21.677C24.7382 21.019 24.3163 20.432 23.7807 19.9599C23.2452 19.4878 22.6099 19.1428 21.9224 18.9506C21.2348 18.7584 20.5127 18.724 19.81 18.85C18.1703 19.1715 16.6633 19.9737 15.4809 21.1543C14.2984 22.335 13.494 23.8407 13.17 25.48C12.9749 26.5377 12.9749 27.6223 13.17 28.68V28.63Z" fill="white"/>
<path d="M27.05 25.42C26.6071 25.42 26.1824 25.244 25.8692 24.9309C25.556 24.6177 25.38 24.1929 25.38 23.75C25.4168 23.037 25.2921 22.325 25.0152 21.667C24.7383 21.0089 24.3163 20.422 23.7807 19.9499C23.2452 19.4778 22.6099 19.1328 21.9224 18.9406C21.2348 18.7484 20.5128 18.714 19.81 18.84C18.3033 19.1377 16.9065 19.8413 15.7705 20.875C14.6345 21.9086 13.8025 23.233 13.3643 24.705C12.9261 26.1771 12.8984 27.7409 13.2842 29.2275C13.6699 30.7142 14.4545 32.0672 15.5532 33.1404C16.6518 34.2136 18.0228 34.9663 19.5181 35.3172C21.0134 35.6681 22.5761 35.6038 24.0375 35.1313C25.4989 34.6587 26.8034 33.7959 27.8102 32.6361C28.8169 31.4762 29.4877 30.0633 29.75 28.55C29.8128 28.1611 29.7897 27.7633 29.6824 27.3843C29.5752 27.0053 29.3863 26.6544 29.129 26.3562C28.8717 26.0579 28.5523 25.8196 28.1932 25.6579C27.834 25.4961 27.4439 25.415 27.05 25.42Z" stroke="#45413C" stroke-linecap="round" stroke-linejoin="round"/>
<path d="M16.95 28.23C16.95 28.6725 17.0371 29.1108 17.2065 29.5196C17.3758 29.9285 17.6241 30.3 17.937 30.6129C18.2499 30.9259 18.6214 31.1741 19.0303 31.3435C19.4392 31.5128 19.8774 31.6 20.32 31.6C20.7625 31.6 21.2007 31.5128 21.6096 31.3435C22.0185 31.1741 22.39 30.9259 22.7029 30.6129C23.0158 30.3 23.2641 29.9285 23.4334 29.5196C23.6028 29.1108 23.69 28.6725 23.69 28.23C23.69 27.3362 23.3349 26.479 22.7029 25.847C22.0709 25.215 21.2137 24.86 20.32 24.86C19.4262 24.86 18.569 25.215 17.937 25.847C17.305 26.479 16.95 27.3362 16.95 28.23Z" fill="#FFAA54"/>
<path d="M20.3199 26.86C21.0333 26.865 21.7264 27.0976 22.2983 27.5238C22.8703 27.9501 23.2913 28.5478 23.4999 29.23C23.6073 28.9073 23.6647 28.57 23.6699 28.23C23.6699 27.3362 23.3149 26.479 22.6829 25.847C22.0509 25.215 21.1937 24.86 20.2999 24.86C19.4062 24.86 18.549 25.215 17.917 25.847C17.285 26.479 16.9299 27.3362 16.9299 28.23C16.9352 28.57 16.9925 28.9073 17.0999 29.23C17.312 28.5421 17.7394 27.9406 18.3191 27.5139C18.8988 27.0873 19.6001 26.858 20.3199 26.86Z" fill="#FFCC99"/>
<path d="M16.95 28.23C16.95 28.6725 17.0371 29.1108 17.2065 29.5196C17.3758 29.9285 17.6241 30.3 17.937 30.6129C18.2499 30.9259 18.6214 31.1741 19.0303 31.3435C19.4392 31.5128 19.8774 31.6 20.32 31.6C20.7625 31.6 21.2007 31.5128 21.6096 31.3435C22.0185 31.1741 22.39 30.9259 22.7029 30.6129C23.0158 30.3 23.2641 29.9285 23.4334 29.5196C23.6028 29.1108 23.69 28.6725 23.69 28.23C23.69 27.3362 23.3349 26.479 22.7029 25.847C22.0709 25.215 21.2137 24.86 20.32 24.86C19.4262 24.86 18.569 25.215 17.937 25.847C17.305 26.479 16.95 27.3362 16.95 28.23Z" stroke="#45413C" stroke-linecap="round" stroke-linejoin="round"/>
<path d="M57.8438 36.2812L56.5 35.5938C57.0417 34.3229 57.6562 33.0833 58.3438 31.875C59.0521 30.6458 60.0104 29.1042 61.2188 27.25C62.4479 25.375 63.2083 24.2083 63.5 23.75C62.9792 22.9375 61.9062 21.375 60.2812 19.0625C58.6771 16.7292 57.4792 14.9062 56.6875 13.5938L58 13C59.7708 15.0625 61.9896 18.0312 64.6562 21.9062C64.7604 21.5104 65.6667 20.125 67.375 17.75C69.1042 15.375 70.0938 13.9688 70.3438 13.5312C70.6562 13.0104 71.0312 12.75 71.4688 12.75C71.8854 12.75 72.2604 12.9375 72.5938 13.3125C72.9271 13.6667 73.1042 14.0833 73.125 14.5625C73 14.7083 71.9167 16.1979 69.875 19.0312C67.8542 21.8646 66.5938 23.5729 66.0938 24.1562C66.8021 25.2604 68.1562 27.1771 70.1562 29.9062C72.1562 32.6146 73.4167 34.4167 73.9375 35.3125C73.9375 35.7083 73.8333 36.0104 73.625 36.2188C73.4375 36.4271 73.1875 36.5312 72.875 36.5312C72.1667 36.5312 71.625 36.1875 71.25 35.5L64.8438 25.9375C64.1979 26.9792 63.0625 28.6458 61.4375 30.9375C59.8125 33.2292 58.6146 35.0104 57.8438 36.2812ZM75.25 25.5312C75.25 24.8229 75.25 24.2917 75.25 23.9375C75.25 23.5625 75.2604 23 75.2812 22.25C75.3229 21.5 75.3646 20.9062 75.4062 20.4688C75.4688 20.0312 75.5521 19.4688 75.6562 18.7812C75.7604 18.0729 75.8958 17.5104 76.0625 17.0938C76.2292 16.6562 76.4167 16.1667 76.625 15.625C76.8542 15.0833 77.1354 14.6458 77.4688 14.3125C77.8021 13.9792 78.1667 13.6667 78.5625 13.375C78.9583 13.0625 79.4271 12.8333 79.9688 12.6875C80.5104 12.5417 81.1042 12.4688 81.75 12.4688C83.0417 12.4688 84.1667 12.7292 85.125 13.25C86.0833 13.75 86.8333 14.3854 87.375 15.1562C87.9167 15.9271 88.3438 16.875 88.6562 18C88.9896 19.125 89.1979 20.1979 89.2812 21.2188C89.3854 22.2396 89.4375 23.3646 89.4375 24.5938C89.4375 25.4271 89.4167 26.1771 89.375 26.8438C89.3542 27.5104 89.2917 28.2708 89.1875 29.125C89.1042 29.9583 88.9688 30.6979 88.7812 31.3438C88.6146 31.9896 88.375 32.6458 88.0625 33.3125C87.75 33.9583 87.375 34.5 86.9375 34.9375C86.5208 35.3542 85.9896 35.6979 85.3438 35.9688C84.6979 36.2396 83.9792 36.375 83.1875 36.375C81.8958 36.375 80.7812 36.2188 79.8438 35.9062C78.9271 35.5938 78.1667 35.1562 77.5625 34.5938C76.9792 34.0312 76.5104 33.2917 76.1562 32.375C75.8229 31.4583 75.5833 30.4583 75.4375 29.375C75.3125 28.2917 75.25 27.0104 75.25 25.5312ZM87.1875 25.7812C87.1875 24.7604 87.1042 23.6979 86.9375 22.5938C86.7917 21.4896 86.5312 20.3021 86.1562 19.0312C85.8021 17.7604 85.2292 16.7292 84.4375 15.9375C83.6458 15.125 82.6979 14.7188 81.5938 14.7188C80.7604 14.7188 80.0208 15.2812 79.375 16.4062C78.75 17.5104 78.3021 18.7604 78.0312 20.1562C77.7604 21.5312 77.625 22.8333 77.625 24.0625C77.625 24.9167 77.625 25.5729 77.625 26.0312C77.6458 26.4688 77.6875 27.1042 77.75 27.9375C77.8125 28.75 77.8958 29.3958 78 29.875C78.125 30.3542 78.3125 30.9062 78.5625 31.5312C78.8125 32.1562 79.1042 32.6458 79.4375 33C79.7917 33.3333 80.2396 33.6354 80.7812 33.9062C81.3438 34.1562 81.9688 34.2917 82.6562 34.3125C84.1771 34.2292 85.3125 33.375 86.0625 31.75C86.8125 30.125 87.1875 28.1354 87.1875 25.7812ZM100.625 13.7188L102.031 14.0625C102.115 15.125 102.26 18.6458 102.469 24.625C102.698 30.5833 102.823 34.1458 102.844 35.3125C102.656 35.9583 102.292 36.2812 101.75 36.2812C101.375 36.2812 101.01 36.1354 100.656 35.8438C100.323 35.5312 100.115 35.1562 100.031 34.7188C100.052 34.3646 100.115 31.4896 100.219 26.0938C98.9271 26.4479 97.8021 26.625 96.8438 26.625C94.8229 26.625 93.2917 25.9375 92.25 24.5625C91.2292 23.1667 90.7188 21.1771 90.7188 18.5938C90.7188 16.9896 90.9062 15.2396 91.2812 13.3438L92.6875 13.6562C92.625 14.6354 92.5938 15.5521 92.5938 16.4062C92.5938 21.5938 94 24.1875 96.8125 24.1875C97.75 24.1875 98.9062 23.875 100.281 23.25C100.385 18.9167 100.5 15.7396 100.625 13.7188ZM104.125 14.6875L105.75 13.1562C106.688 14.6979 107.875 17.0729 109.312 20.2812C110.75 23.4896 111.729 25.6042 112.25 26.625C114.333 21.2708 115.906 17 116.969 13.8125C117.24 13.3125 117.583 13.0625 118 13.0625C118.375 13.0625 118.708 13.25 119 13.625C119.292 13.9792 119.458 14.3958 119.5 14.875C118.792 16.3958 117.667 18.875 116.125 22.3125C114.604 25.7292 113.302 28.5312 112.219 30.7188C111.156 32.8854 110.021 34.9792 108.812 37L106.781 36.5938L110.812 28.6875C110.062 26.625 107.833 21.9583 104.125 14.6875ZM141.594 34.5938L141.906 36C141.094 36 139.615 36.0312 137.469 36.0938C135.344 36.1771 133.802 36.2188 132.844 36.2188C131.302 36.2188 130.25 36.1458 129.688 36C129.896 33.7083 130.021 29.875 130.062 24.5C130.104 19.125 130.24 15.375 130.469 13.25C131.177 13.3125 133.052 13.3646 136.094 13.4062C139.156 13.4479 141.156 13.5417 142.094 13.6875L142.438 15.0938C141.5 15.2604 139.625 15.4583 136.812 15.6875C134 15.9167 132.521 16.0417 132.375 16.0625C132.396 16.5417 132.438 17.5208 132.5 19C132.583 20.4792 132.635 21.6979 132.656 22.6562C133.365 22.7396 134.656 22.8646 136.531 23.0312C138.406 23.1771 139.594 23.2708 140.094 23.3125L140.406 24.75C136.01 25.1458 133.438 25.3542 132.688 25.375C132.688 26.2917 132.667 27.6875 132.625 29.5625C132.604 31.4167 132.594 32.7812 132.594 33.6562C137.365 34.0938 140.365 34.4062 141.594 34.5938ZM155.969 15.375L154.719 16.8125C153.094 15.6042 151.49 15 149.906 15C148.865 15 147.969 15.25 147.219 15.75C146.469 16.25 145.896 16.8542 145.5 17.5625C145.125 18.2708 144.823 19.1667 144.594 20.25C144.385 21.3333 144.25 22.2708 144.188 23.0625C144.146 23.8542 144.125 24.7812 144.125 25.8438C144.125 26.8854 144.312 28.0729 144.688 29.4062C145.083 30.7188 145.74 31.9479 146.656 33.0938C147.573 34.2396 148.635 34.8125 149.844 34.8125C151.156 34.8125 153.167 34.125 155.875 32.75C156.146 33.1458 156.5 33.8021 156.938 34.7188C154.312 36.5312 151.969 37.4375 149.906 37.4375C148.573 37.4375 147.354 37.0312 146.25 36.2188C145.146 35.4062 144.271 34.375 143.625 33.125C143 31.875 142.51 30.5729 142.156 29.2188C141.823 27.8438 141.656 26.5417 141.656 25.3125C141.656 23.9583 141.76 22.6458 141.969 21.375C142.177 20.0833 142.531 18.7917 143.031 17.5C143.531 16.2083 144.281 15.1667 145.281 14.375C146.302 13.5833 147.51 13.1875 148.906 13.1875C150.115 13.1875 151.365 13.3958 152.656 13.8125C153.948 14.2292 155.052 14.75 155.969 15.375ZM157.562 15.0312L157.25 13.625L169.188 12.9375C169.708 12.9583 170.146 13.1458 170.5 13.5C170.854 13.8542 171.031 14.2396 171.031 14.6562C171.031 14.9271 170.927 15.1667 170.719 15.375C170.51 15.5833 170.198 15.7083 169.781 15.75L164.531 15.4688C165.052 22.8229 165.438 29.5104 165.688 35.5312C165.5 36.1562 165.146 36.4688 164.625 36.4688C164.25 36.4688 163.885 36.3125 163.531 36C163.177 35.7083 162.958 35.3438 162.875 34.9062C162.917 33.7812 162.938 32.0729 162.938 29.7812C162.938 28.9271 162.927 27.6458 162.906 25.9375C162.906 24.2292 162.906 22.9479 162.906 22.0938C162.906 19.6146 162.948 17.375 163.031 15.375C160.677 15.2083 158.854 15.0938 157.562 15.0312ZM172.75 13.0312L174.156 13.3438C174.177 13.7396 174.312 16.8542 174.562 22.6875C175.125 22.6042 175.75 22.5625 176.438 22.5625C179.188 22.5625 181.438 23.3438 183.188 24.9062C184.938 26.4479 185.812 28.2604 185.812 30.3438C185.812 34.5729 183.198 36.6875 177.969 36.6875C176.615 36.6875 175.375 36.5833 174.25 36.375C173.125 36.1667 172.479 35.9062 172.312 35.5938C172.375 33.8438 172.427 30.3021 172.469 24.9688C172.51 19.6146 172.604 15.6354 172.75 13.0312ZM174.719 25.0312C174.865 29.4688 174.969 32.4271 175.031 33.9062C176.469 34.0938 177.729 34.1875 178.812 34.1875C181.729 34.1875 183.188 32.8021 183.188 30.0312C183.188 28.5938 182.562 27.3854 181.312 26.4062C180.083 25.4062 178.458 24.9062 176.438 24.9062C175.812 24.9062 175.24 24.9479 174.719 25.0312ZM189.938 30.625L188.531 30.3125C188.427 28.9375 188.156 23.4792 187.719 13.9375C187.802 13.125 188.167 12.7188 188.812 12.7188C189.229 12.7188 189.615 12.8958 189.969 13.25C190.323 13.6042 190.51 14.0417 190.531 14.5625C190.469 15.6875 190.396 18.1354 190.312 21.9062C190.229 25.6771 190.104 28.5833 189.938 30.625ZM189 32.375C189.562 32.375 190.031 32.625 190.406 33.125C190.781 33.6042 190.969 34.1562 190.969 34.7812C190.969 35.2396 190.854 35.6146 190.625 35.9062C190.417 36.1771 190.125 36.3125 189.75 36.3125C189.167 36.3125 188.708 36.0729 188.375 35.5938C188.042 35.1146 187.875 34.5521 187.875 33.9062C187.875 33.4479 187.969 33.0833 188.156 32.8125C188.365 32.5208 188.646 32.375 189 32.375Z" fill="black"/>
</svg>
