<svg width="151" height="80" viewBox="0 0 151 80" fill="none" xmlns="http://www.w3.org/2000/svg">
<path opacity="0.15" d="M12.6 75.5333C12.6 76.2759 14.8687 76.9881 18.907 77.5132C22.9453 78.0383 28.4223 78.3333 34.1333 78.3333C39.8443 78.3333 45.3214 78.0383 49.3597 77.5132C53.398 76.9881 55.6667 76.2759 55.6667 75.5333C55.6667 74.7907 53.398 74.0785 49.3597 73.5534C45.3214 73.0283 39.8443 72.7333 34.1333 72.7333C28.4223 72.7333 22.9453 73.0283 18.907 73.5534C14.8687 74.0785 12.6 74.7907 12.6 75.5333Z" fill="#45413C"/>
<path d="M60.6667 15.3666L53.3333 22.75C47.5822 18.0053 40.2255 15.6563 32.7889 16.1904C25.3524 16.7245 18.4068 20.1005 13.3927 25.6184C8.37864 31.1362 5.68091 38.3723 5.85906 45.8259C6.03722 53.2795 9.07759 60.3784 14.3496 65.6504C19.6215 70.9224 26.7205 73.9627 34.1741 74.1409C41.6276 74.3191 48.8638 71.6213 54.3816 66.6073C59.8994 61.5932 63.2755 54.6476 63.8096 47.211C64.3436 39.7745 61.9947 32.4177 57.25 26.6666L64.6333 19.2833L60.6667 15.3666Z" fill="#87898C"/>
<path d="M58.0167 18.0167L53.3333 22.75C48.9473 19.1216 43.5905 16.8642 37.9305 16.2592C32.2704 15.6542 26.5575 16.7283 21.5037 19.3476C16.4498 21.9669 12.2786 26.0156 9.50984 30.9892C6.74108 35.9627 5.49724 41.6411 5.93333 47.3167C6.30414 42.2973 7.97489 37.4608 10.7813 33.2828C13.5877 29.1049 17.4332 25.7292 21.9396 23.4878C26.446 21.2463 31.4582 20.2163 36.4833 20.499C41.5084 20.7817 46.3734 22.3673 50.6 25.1C51.3975 25.6178 52.3481 25.8472 53.294 25.7502C54.2399 25.6532 55.1242 25.2355 55.8 24.5667L60.1833 20.1833L58.0167 18.0167Z" fill="#BDBEC0"/>
<path fill-rule="evenodd" clip-rule="evenodd" d="M60.3119 15.0143C60.5061 14.8188 60.8219 14.8172 61.018 15.0108L64.9846 18.9275C65.0794 19.0211 65.1329 19.1486 65.1333 19.2817C65.1337 19.4149 65.081 19.5427 64.9869 19.6369L57.9223 26.7014C62.5566 32.498 64.8407 39.8335 64.3083 47.2468C63.765 54.8115 60.3308 61.8768 54.7179 66.9773C49.105 72.0778 41.7441 74.822 34.1621 74.6408C26.5801 74.4595 19.3588 71.3668 13.996 66.004C8.6332 60.6411 5.54043 53.4198 5.35921 45.8378C5.17798 38.2558 7.9222 30.895 13.0227 25.2821C18.1231 19.6692 25.1884 16.2349 32.7531 15.6917C40.166 15.1593 47.5009 17.4431 53.2974 22.0767L60.3119 15.0143ZM60.6701 16.0727L53.6881 23.1023C53.5061 23.2856 53.2144 23.3 53.0151 23.1357C47.3631 18.4727 40.1331 16.1642 32.8248 16.6891C25.5164 17.214 18.6904 20.5319 13.7627 25.9546C8.83508 31.3774 6.18383 38.4888 6.35892 45.8139C6.53401 53.1391 9.52199 60.1157 14.7031 65.2968C19.8842 70.478 26.8609 73.466 34.186 73.641C41.5112 73.8161 48.6226 71.1649 54.0454 66.2372C59.4681 61.3095 62.786 54.4836 63.3109 47.1752C63.8357 39.8668 61.5273 32.6368 56.8643 26.9848C56.7003 26.7861 56.7142 26.4953 56.8964 26.3131L63.924 19.2856L60.6701 16.0727Z" fill="#45413C"/>
<path d="M73.2333 6.76665C72.7988 6.32318 72.2802 5.97088 71.7078 5.73036C71.1355 5.48985 70.5208 5.36597 69.9 5.36597C69.2791 5.36597 68.6645 5.48985 68.0922 5.73036C67.5198 5.97088 67.0012 6.32318 66.5667 6.76665L58.0167 15.3666C57.8418 15.5402 57.703 15.7466 57.6083 15.974C57.5136 16.2014 57.4648 16.4453 57.4648 16.6916C57.4648 16.938 57.5136 17.1819 57.6083 17.4093C57.703 17.6367 57.8418 17.8431 58.0167 18.0166L61.9833 21.9833C62.1568 22.1582 62.3633 22.297 62.5907 22.3917C62.8181 22.4864 63.062 22.5351 63.3083 22.5351C63.5547 22.5351 63.7986 22.4864 64.026 22.3917C64.2534 22.297 64.4598 22.1582 64.6333 21.9833L73.2333 13.3333C74.0984 12.4595 74.5837 11.2796 74.5837 10.05C74.5837 8.82037 74.0984 7.64044 73.2333 6.76665Z" fill="#FFE500"/>
<path d="M73.2333 6.76665C72.7988 6.32318 72.2802 5.97088 71.7078 5.73036C71.1355 5.48985 70.5208 5.36597 69.9 5.36597C69.2791 5.36597 68.6645 5.48985 68.0922 5.73036C67.5198 5.97088 67.0012 6.32318 66.5667 6.76665L58.0167 15.3666C57.8418 15.5402 57.703 15.7466 57.6083 15.974C57.5136 16.2014 57.4648 16.4453 57.4648 16.6916C57.4648 16.938 57.5136 17.1819 57.6083 17.4093C57.703 17.6367 57.8418 17.8431 58.0167 18.0166L59.4333 19.4333C59.4899 19.3179 59.5629 19.2112 59.65 19.1166L68.3333 10.5C69.1658 9.67104 70.2803 9.18658 71.4543 9.14333C72.6283 9.10008 73.7754 9.50121 74.6667 10.2666C74.6905 9.61486 74.575 8.96548 74.3278 8.36191C74.0807 7.75833 73.7075 7.21447 73.2333 6.76665Z" fill="#FFF48C"/>
<path fill-rule="evenodd" clip-rule="evenodd" d="M67.0193 7.1211C67.019 7.1214 67.0187 7.12169 67.0184 7.12199L58.3702 15.7702L58.3689 15.7716C58.2408 15.8986 58.1392 16.0498 58.0699 16.2163C58.0005 16.3827 57.9648 16.5613 57.9648 16.7417C57.9648 16.922 58.0005 17.1006 58.0699 17.2671C58.1392 17.4336 58.2408 17.5847 58.3689 17.7118L58.3702 17.7131L62.3382 21.6812C62.4653 21.8092 62.6164 21.9108 62.7829 21.9801C62.9494 22.0495 63.128 22.0852 63.3083 22.0852C63.4887 22.0852 63.6673 22.0495 63.8338 21.9801C64.0003 21.9108 64.1514 21.8092 64.2784 21.6812L64.2798 21.6798L72.8834 13.0762C73.2793 12.6882 73.5939 12.2252 73.8087 11.7141C74.0234 11.2031 74.134 10.6543 74.134 10.1C74.134 9.54568 74.0234 8.99692 73.8087 8.48588C73.5939 7.97483 73.2794 7.51177 72.8834 7.12382L72.8815 7.12199C72.1014 6.34956 71.0479 5.91626 69.95 5.91626C68.8525 5.91626 67.7994 6.34923 67.0193 7.1211ZM66.3149 6.41137C67.2823 5.45355 68.5886 4.91626 69.95 4.91626C71.3109 4.91626 72.6169 5.45321 73.5842 6.41045C74.0747 6.89132 74.4645 7.46519 74.7306 8.09848C74.9969 8.73218 75.134 9.41264 75.134 10.1C75.134 10.7874 74.9969 11.4678 74.7306 12.1015C74.4646 12.7344 74.0752 13.308 73.5851 13.7887C73.5845 13.7893 73.5839 13.7899 73.5833 13.7905L64.9882 22.3855C64.9879 22.3858 64.9876 22.3862 64.9873 22.3865C64.7675 22.6077 64.5061 22.7834 64.2182 22.9033C63.9299 23.0233 63.6207 23.0852 63.3083 23.0852C62.996 23.0852 62.6868 23.0233 62.3984 22.9033C62.1104 22.7833 61.8489 22.6075 61.629 22.3861C61.6288 22.3859 61.6292 22.3863 61.629 22.3861L57.6645 18.4216C57.6642 18.4213 57.664 18.4211 57.6637 18.4208C57.4424 18.201 57.2667 17.9396 57.1467 17.6516C57.0267 17.3632 56.9648 17.054 56.9648 16.7417C56.9648 16.4294 57.0267 16.1201 57.1467 15.8318C57.2667 15.5438 57.4424 15.2824 57.6637 15.0625C57.664 15.0623 57.6642 15.062 57.6645 15.0618L66.3131 6.41313L66.3149 6.41137Z" fill="#45413C"/>
<path d="M11.45 45.15C11.45 48.2229 12.0553 51.2658 13.2312 54.1048C14.4072 56.9438 16.1308 59.5234 18.3037 61.6963C20.4766 63.8692 23.0562 65.5928 25.8952 66.7688C28.7342 67.9447 31.7771 68.55 34.85 68.55C37.9229 68.55 40.9658 67.9447 43.8048 66.7688C46.6438 65.5928 49.2234 63.8692 51.3963 61.6963C53.5692 59.5234 55.2928 56.9438 56.4688 54.1048C57.6448 51.2658 58.25 48.2229 58.25 45.15C58.25 42.0771 57.6448 39.0342 56.4688 36.1952C55.2928 33.3562 53.5692 30.7766 51.3963 28.6037C49.2234 26.4308 46.6438 24.7072 43.8048 23.5312C40.9658 22.3553 37.9229 21.75 34.85 21.75C31.7771 21.75 28.7342 22.3553 25.8952 23.5312C23.0562 24.7072 20.4766 26.4308 18.3037 28.6037C16.1308 30.7766 14.4072 33.3562 13.2312 36.1952C12.0553 39.0342 11.45 42.0771 11.45 45.15Z" fill="#656769"/>
<path d="M18.3333 34.2167C21.4259 31.0907 25.3389 28.9022 29.6213 27.9035C33.9036 26.9048 38.3811 27.1365 42.5374 28.5719C46.6938 30.0073 50.36 32.588 53.1135 36.0165C55.8669 39.445 57.5955 43.5818 58.1 47.95C58.4257 44.7056 58.0677 41.4289 57.0492 38.3314C56.0307 35.2338 54.3743 32.3841 52.1868 29.966C49.9993 27.548 47.3293 25.6152 44.3489 24.2924C41.3686 22.9697 38.144 22.2863 34.8833 22.2863C31.6226 22.2863 28.3981 22.9697 25.4177 24.2924C22.4374 25.6152 19.7673 27.548 17.5798 29.966C15.3923 32.3841 13.7359 35.2338 12.7174 38.3314C11.6989 41.4289 11.341 44.7056 11.6667 47.95C12.2861 42.7542 14.6341 37.9174 18.3333 34.2167Z" fill="#525252"/>
<path fill-rule="evenodd" clip-rule="evenodd" d="M25.7039 23.0693C28.6036 21.8682 31.7114 21.25 34.85 21.25C37.9886 21.25 41.0965 21.8682 43.9961 23.0693C46.8958 24.2704 49.5305 26.0308 51.7499 28.2501C53.9692 30.4695 55.7296 33.1042 56.9307 36.0039C58.1318 38.9035 58.75 42.0114 58.75 45.15C58.75 48.2886 58.1318 51.3965 56.9307 54.2961C55.7296 57.1958 53.9692 59.8305 51.7499 62.0499C49.5305 64.2692 46.8958 66.0296 43.9961 67.2307C41.0965 68.4318 37.9886 69.05 34.85 69.05C31.7114 69.05 28.6036 68.4318 25.7039 67.2307C22.8042 66.0296 20.1695 64.2692 17.9502 62.0499C15.7308 59.8305 13.9704 57.1958 12.7693 54.2961C11.5682 51.3965 10.95 48.2886 10.95 45.15C10.95 42.0114 11.5682 38.9035 12.7693 36.0039C13.9704 33.1042 15.7308 30.4695 17.9502 28.2501C20.1695 26.0308 22.8042 24.2704 25.7039 23.0693ZM34.85 22.25C31.8427 22.25 28.8649 22.8423 26.0866 23.9932C23.3082 25.144 20.7837 26.8308 18.6573 28.9573C16.5308 31.0837 14.844 33.6082 13.6932 36.3865C12.5423 39.1649 11.95 42.1427 11.95 45.15C11.95 48.1573 12.5423 51.1351 13.6932 53.9135C14.844 56.6918 16.5308 59.2163 18.6573 61.3427C20.7837 63.4692 23.3082 65.156 26.0866 66.3068C28.8649 67.4577 31.8427 68.05 34.85 68.05C37.8573 68.05 40.8351 67.4577 43.6135 66.3068C46.3918 65.156 48.9163 63.4692 51.0428 61.3427C53.1692 59.2163 54.856 56.6918 56.0069 53.9135C57.1577 51.1351 57.75 48.1573 57.75 45.15C57.75 42.1427 57.1577 39.1649 56.0069 36.3865C54.856 33.6082 53.1692 31.0837 51.0428 28.9573C48.9163 26.8308 46.3918 25.144 43.6135 23.9932C40.8351 22.8423 37.8573 22.25 34.85 22.25Z" fill="#45413C"/>
<path d="M44.25 42.3667C43.5118 42.3667 42.8039 42.0734 42.2819 41.5514C41.7599 41.0295 41.4667 40.3215 41.4667 39.5833C41.528 38.3951 41.3201 37.2083 40.8586 36.1116C40.397 35.0149 39.6937 34.0367 38.8012 33.2499C37.9086 32.4631 36.8498 31.888 35.7039 31.5677C34.558 31.2474 33.3545 31.1901 32.1833 31.4C29.6721 31.8961 27.3441 33.0689 25.4507 34.7917C23.5574 36.5144 22.1707 38.7217 21.4404 41.1751C20.7101 43.6285 20.6639 46.2348 21.3069 48.7125C21.9498 51.1903 23.2574 53.4453 25.0886 55.234C26.9197 57.0228 29.2047 58.2773 31.6968 58.862C34.1889 59.4468 36.7934 59.3397 39.229 58.5521C41.6647 57.7646 43.8389 56.3266 45.5168 54.3935C47.1948 52.4603 48.3128 50.1055 48.75 47.5833C48.8546 46.9353 48.8161 46.2722 48.6373 45.6405C48.4585 45.0089 48.1437 44.4241 47.7149 43.927C47.2861 43.4299 46.7538 43.0327 46.1552 42.7631C45.5567 42.4936 44.9064 42.3583 44.25 42.3667Z" fill="#F0F0F0"/>
<path d="M21.1167 47.7167C21.6608 44.9864 23.0029 42.4791 24.9729 40.512C26.9429 38.545 29.4523 37.2067 32.1833 36.6667C33.3545 36.4567 34.558 36.5141 35.7039 36.8344C36.8498 37.1547 37.9086 37.7297 38.8012 38.5165C39.6937 39.3033 40.397 40.2816 40.8586 41.3783C41.3201 42.475 41.528 43.6617 41.4667 44.85C41.4667 45.5897 41.7594 46.2994 42.2809 46.824C42.8024 47.3486 43.5103 47.6456 44.25 47.65C45.0327 47.6509 45.8024 47.8501 46.4873 48.229C47.1722 48.6079 47.75 49.1541 48.1667 49.8167C48.4215 49.095 48.6166 48.3536 48.75 47.6C48.8546 46.9519 48.8161 46.2888 48.6373 45.6572C48.4585 45.0256 48.1437 44.4407 47.7149 43.9437C47.2861 43.4466 46.7538 43.0494 46.1552 42.7798C45.5567 42.5103 44.9064 42.3749 44.25 42.3833C43.5118 42.3833 42.8039 42.0901 42.2819 41.5681C41.7599 41.0461 41.4667 40.3382 41.4667 39.6C41.528 38.4117 41.3201 37.225 40.8586 36.1283C40.397 35.0316 39.6937 34.0533 38.8012 33.2665C37.9086 32.4797 36.8498 31.9047 35.7039 31.5844C34.558 31.2641 33.3545 31.2067 32.1833 31.4167C29.4504 31.9525 26.9388 33.2894 24.9681 35.2572C22.9974 37.225 21.6567 39.7346 21.1167 42.4667C20.7915 44.2296 20.7915 46.0371 21.1167 47.8V47.7167Z" fill="white"/>
<path fill-rule="evenodd" clip-rule="evenodd" d="M32.0951 30.9078C33.3404 30.6846 34.6201 30.7456 35.8385 31.0862C37.057 31.4268 38.1827 32.0382 39.1318 32.8748C40.0808 33.7114 40.8287 34.7516 41.3194 35.9177C41.8084 37.0795 42.0296 38.3365 41.9667 39.5954C41.9699 40.1966 42.2101 40.7725 42.6354 41.1979C43.0629 41.6254 43.6425 41.8659 44.247 41.8667C44.9752 41.8579 45.6965 42.0082 46.3605 42.3072C47.0256 42.6067 47.6171 43.0481 48.0935 43.6004C48.5699 44.1527 48.9197 44.8025 49.1184 45.5043C49.3171 46.2062 49.3598 46.9429 49.2436 47.663L49.2427 47.6687L49.2426 47.6687C48.7899 50.2807 47.6321 52.7193 45.8944 54.7212C44.1568 56.7231 41.9052 58.2123 39.3829 59.0279C36.8605 59.8434 34.1633 59.9544 31.5825 59.3488C29.0017 58.7432 26.6354 57.4441 24.7392 55.5917C22.8429 53.7393 21.4887 51.404 20.8229 48.8381C20.1571 46.2722 20.2049 43.5732 20.9612 41.0324C21.7175 38.4917 23.1535 36.2059 25.1142 34.4218C27.0749 32.6378 29.4858 31.4233 32.0864 30.9095L32.0951 30.9078L32.0951 30.9078ZM32.2759 31.8914C29.8556 32.3704 27.6121 33.501 25.7872 35.1615C23.9613 36.8229 22.6239 38.9516 21.9196 41.3177C21.2153 43.6838 21.1708 46.1974 21.7908 48.587C22.4109 50.9765 23.672 53.1513 25.4379 54.8764C27.2039 56.6014 29.4076 57.8113 31.811 58.3753C34.2144 58.9392 36.7262 58.8359 39.0752 58.0764C41.4242 57.3169 43.521 55.93 45.1392 54.0657C46.7568 52.2021 47.8348 49.9322 48.2568 47.5009C48.3492 46.9257 48.3149 46.3373 48.1562 45.7767C47.9973 45.2153 47.7174 44.6954 47.3363 44.2536C46.9552 43.8117 46.482 43.4586 45.9499 43.219C45.4179 42.9795 44.8398 42.8592 44.2564 42.8666L44.25 42.8667V42.8667C43.3792 42.8667 42.5441 42.5207 41.9283 41.905C41.3126 41.2893 40.9667 40.4541 40.9667 39.5833C40.9667 39.5747 40.9669 39.5661 40.9673 39.5576C41.0248 38.4445 40.8301 37.3328 40.3977 36.3056C39.9654 35.2783 39.3066 34.3619 38.4705 33.6249C37.6344 32.8879 36.6427 32.3493 35.5693 32.0493C34.4973 31.7496 33.3715 31.6956 32.2759 31.8914Z" fill="#45413C"/>
<path d="M27.4167 47.05C27.4167 47.7876 27.5619 48.518 27.8442 49.1994C28.1265 49.8809 28.5402 50.5 29.0617 51.0216C29.5833 51.5432 30.2025 51.9569 30.8839 52.2391C31.5654 52.5214 32.2957 52.6667 33.0333 52.6667C33.7709 52.6667 34.5013 52.5214 35.1827 52.2391C35.8642 51.9569 36.4833 51.5432 37.0049 51.0216C37.5265 50.5 37.9402 49.8809 38.2224 49.1994C38.5047 48.518 38.65 47.7876 38.65 47.05C38.65 45.5604 38.0582 44.1318 37.0049 43.0784C35.9516 42.0251 34.523 41.4333 33.0333 41.4333C31.5437 41.4333 30.1151 42.0251 29.0617 43.0784C28.0084 44.1318 27.4167 45.5604 27.4167 47.05Z" fill="#FFAA54"/>
<path d="M33.0333 44.7667C34.2222 44.775 35.3774 45.1626 36.3307 45.8731C37.284 46.5836 37.9856 47.5798 38.3333 48.7167C38.5123 48.1789 38.6079 47.6168 38.6167 47.05C38.6167 45.5604 38.0249 44.1318 36.9716 43.0784C35.9182 42.0251 34.4896 41.4333 33 41.4333C31.5104 41.4333 30.0817 42.0251 29.0284 43.0784C27.9751 44.1318 27.3833 45.5604 27.3833 47.05C27.3921 47.6168 27.4877 48.1789 27.6667 48.7167C28.0201 47.5703 28.7324 46.5677 29.6985 45.8566C30.6647 45.1455 31.8337 44.7634 33.0333 44.7667Z" fill="#FFCC99"/>
<path fill-rule="evenodd" clip-rule="evenodd" d="M28.7082 42.7249C29.8553 41.5778 31.4111 40.9333 33.0333 40.9333C34.6556 40.9333 36.2114 41.5778 37.3585 42.7249C38.5056 43.872 39.15 45.4278 39.15 47.05C39.15 47.8533 38.9918 48.6487 38.6844 49.3908C38.377 50.1329 37.9264 50.8072 37.3585 51.3752C36.7905 51.9431 36.1162 52.3937 35.3741 52.7011C34.632 53.0085 33.8366 53.1667 33.0333 53.1667C32.2301 53.1667 31.4347 53.0085 30.6926 52.7011C29.9505 52.3937 29.2762 51.9431 28.7082 51.3752C28.1402 50.8072 27.6896 50.1329 27.3823 49.3908C27.0749 48.6487 26.9167 47.8533 26.9167 47.05C26.9167 45.4278 27.5611 43.872 28.7082 42.7249ZM33.0333 41.9333C31.6763 41.9333 30.3749 42.4724 29.4153 43.432C28.4557 44.3915 27.9167 45.693 27.9167 47.05C27.9167 47.7219 28.049 48.3873 28.3061 49.0081C28.5633 49.6289 28.9402 50.1929 29.4153 50.668C29.8904 51.1432 30.4545 51.5201 31.0753 51.7772C31.696 52.0343 32.3614 52.1667 33.0333 52.1667C33.7053 52.1667 34.3706 52.0343 34.9914 51.7772C35.6122 51.5201 36.1762 51.1432 36.6514 50.668C37.1265 50.1929 37.5034 49.6289 37.7605 49.0081C38.0176 48.3873 38.15 47.7219 38.15 47.05C38.15 45.693 37.6109 44.3915 36.6514 43.432C35.6918 42.4724 34.3903 41.9333 33.0333 41.9333Z" fill="#45413C"/>
<path d="M149.531 63.1719L148.125 62.8594C148.021 61.4844 147.75 56.026 147.312 46.4844C147.396 45.6719 147.76 45.2656 148.406 45.2656C148.823 45.2656 149.208 45.4427 149.562 45.7969C149.917 46.151 150.104 46.5885 150.125 47.1094C150.062 48.2344 149.99 50.6823 149.906 54.4531C149.823 58.224 149.698 61.1302 149.531 63.1719ZM148.594 64.9219C149.156 64.9219 149.625 65.1719 150 65.6719C150.375 66.151 150.562 66.7031 150.562 67.3281C150.562 67.7865 150.448 68.1615 150.219 68.4531C150.01 68.724 149.719 68.8594 149.344 68.8594C148.76 68.8594 148.302 68.6198 147.969 68.1406C147.635 67.6615 147.469 67.099 147.469 66.4531C147.469 65.9948 147.562 65.6302 147.75 65.3594C147.958 65.0677 148.24 64.9219 148.594 64.9219Z" fill="black"/>
<path d="M132.344 45.5781L133.75 45.8906C133.771 46.2865 133.906 49.401 134.156 55.2344C134.719 55.151 135.344 55.1094 136.031 55.1094C138.781 55.1094 141.031 55.8906 142.781 57.4531C144.531 58.9948 145.406 60.8073 145.406 62.8906C145.406 67.1198 142.792 69.2344 137.562 69.2344C136.208 69.2344 134.969 69.1302 133.844 68.9219C132.719 68.7135 132.073 68.4531 131.906 68.1406C131.969 66.3906 132.021 62.849 132.062 57.5156C132.104 52.1615 132.198 48.1823 132.344 45.5781ZM134.312 57.5781C134.458 62.0156 134.562 64.974 134.625 66.4531C136.062 66.6406 137.323 66.7344 138.406 66.7344C141.323 66.7344 142.781 65.349 142.781 62.5781C142.781 61.1406 142.156 59.9323 140.906 58.9531C139.677 57.9531 138.052 57.4531 136.031 57.4531C135.406 57.4531 134.833 57.4948 134.312 57.5781Z" fill="black"/>
<path d="M117.156 47.5781L116.844 46.1719L128.781 45.4844C129.302 45.5052 129.74 45.6927 130.094 46.0469C130.448 46.401 130.625 46.7865 130.625 47.2031C130.625 47.474 130.521 47.7135 130.312 47.9219C130.104 48.1302 129.792 48.2552 129.375 48.2969L124.125 48.0156C124.646 55.3698 125.031 62.0573 125.281 68.0781C125.094 68.7031 124.74 69.0156 124.219 69.0156C123.844 69.0156 123.479 68.8594 123.125 68.5469C122.771 68.2552 122.552 67.8906 122.469 67.4531C122.51 66.3281 122.531 64.6198 122.531 62.3281C122.531 61.474 122.521 60.1927 122.5 58.4844C122.5 56.776 122.5 55.4948 122.5 54.6406C122.5 52.1615 122.542 49.9219 122.625 47.9219C120.271 47.7552 118.448 47.6406 117.156 47.5781Z" fill="black"/>
<path d="M115.562 47.9219L114.312 49.3594C112.688 48.151 111.083 47.5469 109.5 47.5469C108.458 47.5469 107.562 47.7969 106.812 48.2969C106.062 48.7969 105.49 49.401 105.094 50.1094C104.719 50.8177 104.417 51.7135 104.188 52.7969C103.979 53.8802 103.844 54.8177 103.781 55.6094C103.74 56.401 103.719 57.3281 103.719 58.3906C103.719 59.4323 103.906 60.6198 104.281 61.9531C104.677 63.2656 105.333 64.4948 106.25 65.6406C107.167 66.7865 108.229 67.3594 109.438 67.3594C110.75 67.3594 112.76 66.6719 115.469 65.2969C115.74 65.6927 116.094 66.349 116.531 67.2656C113.906 69.0781 111.562 69.9844 109.5 69.9844C108.167 69.9844 106.948 69.5781 105.844 68.7656C104.74 67.9531 103.865 66.9219 103.219 65.6719C102.594 64.4219 102.104 63.1198 101.75 61.7656C101.417 60.3906 101.25 59.0885 101.25 57.8594C101.25 56.5052 101.354 55.1927 101.562 53.9219C101.771 52.6302 102.125 51.3385 102.625 50.0469C103.125 48.7552 103.875 47.7135 104.875 46.9219C105.896 46.1302 107.104 45.7344 108.5 45.7344C109.708 45.7344 110.958 45.9427 112.25 46.3594C113.542 46.776 114.646 47.2969 115.562 47.9219Z" fill="black"/>
<path d="M101.188 67.1406L101.5 68.5469C100.688 68.5469 99.2083 68.5781 97.0625 68.6406C94.9375 68.724 93.3958 68.7656 92.4375 68.7656C90.8958 68.7656 89.8438 68.6927 89.2812 68.5469C89.4896 66.2552 89.6146 62.4219 89.6562 57.0469C89.6979 51.6719 89.8333 47.9219 90.0625 45.7969C90.7708 45.8594 92.6458 45.9115 95.6875 45.9531C98.75 45.9948 100.75 46.0885 101.688 46.2344L102.031 47.6406C101.094 47.8073 99.2188 48.0052 96.4062 48.2344C93.5938 48.4635 92.1146 48.5885 91.9688 48.6094C91.9896 49.0885 92.0312 50.0677 92.0938 51.5469C92.1771 53.026 92.2292 54.2448 92.25 55.2031C92.9583 55.2865 94.25 55.4115 96.125 55.5781C98 55.724 99.1875 55.8177 99.6875 55.8594L100 57.2969C95.6042 57.6927 93.0312 57.901 92.2812 57.9219C92.2812 58.8385 92.2604 60.2344 92.2188 62.1094C92.1979 63.9635 92.1875 65.3281 92.1875 66.2031C96.9583 66.6406 99.9583 66.9531 101.188 67.1406Z" fill="black"/>
<path d="M135.625 12.2344L137.25 10.7031C138.188 12.2448 139.375 14.6198 140.812 17.8281C142.25 21.0365 143.229 23.151 143.75 24.1719C145.833 18.8177 147.406 14.5469 148.469 11.3594C148.74 10.8594 149.083 10.6094 149.5 10.6094C149.875 10.6094 150.208 10.7969 150.5 11.1719C150.792 11.526 150.958 11.9427 151 12.4219C150.292 13.9427 149.167 16.4219 147.625 19.8594C146.104 23.276 144.802 26.0781 143.719 28.2656C142.656 30.4323 141.521 32.526 140.312 34.5469L138.281 34.1406L142.312 26.2344C141.562 24.1719 139.333 19.5052 135.625 12.2344Z" fill="black"/>
<path d="M132.125 11.2656L133.531 11.6094C133.615 12.6719 133.76 16.1927 133.969 22.1719C134.198 28.1302 134.323 31.6927 134.344 32.8594C134.156 33.5052 133.792 33.8281 133.25 33.8281C132.875 33.8281 132.51 33.6823 132.156 33.3906C131.823 33.0781 131.615 32.7031 131.531 32.2656C131.552 31.9115 131.615 29.0365 131.719 23.6406C130.427 23.9948 129.302 24.1719 128.344 24.1719C126.323 24.1719 124.792 23.4844 123.75 22.1094C122.729 20.7135 122.219 18.724 122.219 16.1406C122.219 14.5365 122.406 12.7865 122.781 10.8906L124.188 11.2031C124.125 12.1823 124.094 13.099 124.094 13.9531C124.094 19.1406 125.5 21.7344 128.312 21.7344C129.25 21.7344 130.406 21.4219 131.781 20.7969C131.885 16.4635 132 13.2865 132.125 11.2656Z" fill="black"/>
<path d="M106.75 23.0781C106.75 22.3698 106.75 21.8385 106.75 21.4844C106.75 21.1094 106.76 20.5469 106.781 19.7969C106.823 19.0469 106.865 18.4531 106.906 18.0156C106.969 17.5781 107.052 17.0156 107.156 16.3281C107.26 15.6198 107.396 15.0573 107.562 14.6406C107.729 14.2031 107.917 13.7135 108.125 13.1719C108.354 12.6302 108.635 12.1927 108.969 11.8594C109.302 11.526 109.667 11.2135 110.062 10.9219C110.458 10.6094 110.927 10.3802 111.469 10.2344C112.01 10.0885 112.604 10.0156 113.25 10.0156C114.542 10.0156 115.667 10.276 116.625 10.7969C117.583 11.2969 118.333 11.9323 118.875 12.7031C119.417 13.474 119.844 14.4219 120.156 15.5469C120.49 16.6719 120.698 17.7448 120.781 18.7656C120.885 19.7865 120.938 20.9115 120.938 22.1406C120.938 22.974 120.917 23.724 120.875 24.3906C120.854 25.0573 120.792 25.8177 120.688 26.6719C120.604 27.5052 120.469 28.2448 120.281 28.8906C120.115 29.5365 119.875 30.1927 119.562 30.8594C119.25 31.5052 118.875 32.0469 118.438 32.4844C118.021 32.901 117.49 33.2448 116.844 33.5156C116.198 33.7865 115.479 33.9219 114.688 33.9219C113.396 33.9219 112.281 33.7656 111.344 33.4531C110.427 33.1406 109.667 32.7031 109.062 32.1406C108.479 31.5781 108.01 30.8385 107.656 29.9219C107.323 29.0052 107.083 28.0052 106.938 26.9219C106.812 25.8385 106.75 24.5573 106.75 23.0781ZM118.688 23.3281C118.688 22.3073 118.604 21.2448 118.438 20.1406C118.292 19.0365 118.031 17.849 117.656 16.5781C117.302 15.3073 116.729 14.276 115.938 13.4844C115.146 12.6719 114.198 12.2656 113.094 12.2656C112.26 12.2656 111.521 12.8281 110.875 13.9531C110.25 15.0573 109.802 16.3073 109.531 17.7031C109.26 19.0781 109.125 20.3802 109.125 21.6094C109.125 22.4635 109.125 23.1198 109.125 23.5781C109.146 24.0156 109.188 24.651 109.25 25.4844C109.312 26.2969 109.396 26.9427 109.5 27.4219C109.625 27.901 109.812 28.4531 110.062 29.0781C110.312 29.7031 110.604 30.1927 110.938 30.5469C111.292 30.8802 111.74 31.1823 112.281 31.4531C112.844 31.7031 113.469 31.8385 114.156 31.8594C115.677 31.776 116.812 30.9219 117.562 29.2969C118.312 27.6719 118.688 25.6823 118.688 23.3281Z" fill="black"/>
<path d="M89.3438 33.8281L88 33.1406C88.5417 31.8698 89.1562 30.6302 89.8438 29.4219C90.5521 28.1927 91.5104 26.651 92.7188 24.7969C93.9479 22.9219 94.7083 21.7552 95 21.2969C94.4792 20.4844 93.4062 18.9219 91.7812 16.6094C90.1771 14.276 88.9792 12.4531 88.1875 11.1406L89.5 10.5469C91.2708 12.6094 93.4896 15.5781 96.1562 19.4531C96.2604 19.0573 97.1667 17.6719 98.875 15.2969C100.604 12.9219 101.594 11.5156 101.844 11.0781C102.156 10.5573 102.531 10.2969 102.969 10.2969C103.385 10.2969 103.76 10.4844 104.094 10.8594C104.427 11.2135 104.604 11.6302 104.625 12.1094C104.5 12.2552 103.417 13.7448 101.375 16.5781C99.3542 19.4115 98.0938 21.1198 97.5938 21.7031C98.3021 22.8073 99.6562 24.724 101.656 27.4531C103.656 30.1615 104.917 31.9635 105.438 32.8594C105.438 33.2552 105.333 33.5573 105.125 33.7656C104.938 33.974 104.688 34.0781 104.375 34.0781C103.667 34.0781 103.125 33.7344 102.75 33.0469L96.3438 23.4844C95.6979 24.526 94.5625 26.1927 92.9375 28.4844C91.3125 30.776 90.1146 32.5573 89.3438 33.8281Z" fill="black"/>
</svg>
