<svg width="32" height="32" viewBox="0 0 32 32" fill="none" xmlns="http://www.w3.org/2000/svg">
<path d="M4 14.6667V18.6667C4 19.0203 4.14048 19.3594 4.39052 19.6095C4.64057 19.8595 4.97971 20 5.33333 20M4 14.6667L14.36 6.61334C14.8286 6.24788 15.4058 6.04941 16 6.04941C16.5942 6.04941 17.1714 6.24788 17.64 6.61334L28 14.6667M4 14.6667H28M5.33333 20H26.6667M5.33333 20C4.97971 20 4.64057 20.1405 4.39052 20.3905C4.14048 20.6406 4 20.9797 4 21.3333V24C4 24.3536 4.14048 24.6928 4.39052 24.9428C4.64057 25.1929 4.97971 25.3333 5.33333 25.3333H16M26.6667 20C27.0203 20 27.3594 19.8595 27.6095 19.6095C27.8595 19.3594 28 19.0203 28 18.6667V14.6667M26.6667 20C27.0203 20 27.3594 20.1405 27.6095 20.3905C27.8595 20.6406 28 20.9797 28 21.3333V24C28 24.3536 27.8595 24.6928 27.6095 24.9428C27.3594 25.1929 27.0203 25.3333 26.6667 25.3333H21.56" stroke="black" stroke-width="2.66667" stroke-linecap="round" stroke-linejoin="round"/>
<path d="M17.2934 26.36L9.33337 20H26L21 26C20.5513 26.5317 19.9125 26.867 19.22 26.9342C18.5274 27.0015 17.8361 26.7954 17.2934 26.36Z" stroke="black" stroke-width="2.66667" stroke-linecap="round" stroke-linejoin="round"/>
</svg>
